<svg width="148" height="104" viewBox="0 0 148 104" fill="none" xmlns="http://www.w3.org/2000/svg">
<path d="M21.4523 37.2269C28.9956 37.2269 34.7869 38.5652 38.8263 41.2419C42.8656 43.8699 44.8853 48.2012 44.8853 54.2359C44.8853 60.3192 42.8413 64.7236 38.7533 67.4489C34.6653 70.1256 28.8253 71.4639 21.2333 71.4639H17.6563V88.3999H6.26826V38.5409C8.75026 38.0542 11.3783 37.7136 14.1523 37.5189C16.9263 37.3242 19.3596 37.2269 21.4523 37.2269ZM22.1823 46.9359C21.3549 46.9359 20.5276 46.9602 19.7003 47.0089C18.9216 47.0576 18.2403 47.1062 17.6563 47.1549V61.7549H21.2333C25.1753 61.7549 28.1439 61.2196 30.1393 60.1489C32.1346 59.0782 33.1323 57.0829 33.1323 54.1629C33.1323 52.7516 32.8646 51.5836 32.3293 50.6589C31.8426 49.7342 31.1126 49.0042 30.1393 48.4689C29.2146 47.8849 28.0709 47.4956 26.7083 47.3009C25.3456 47.0576 23.8369 46.9359 22.1823 46.9359ZM73.9068 78.6179V88.3999H40.1078V37.8109H51.4958V78.6179H73.9068Z" fill="#545F71"/>
<path d="M98.6155 37.8109H110.004V88.3999H98.6155V66.9379H79.4895V88.3999H68.1015V37.8109H79.4895V57.1559H98.6155V37.8109ZM146.093 37.8109V47.5199H130.836V88.3999H119.448V47.5199H104.191V37.8109H146.093Z" fill="#738EA4"/>
<g clip-path="url(#clip0_207_498)">
<path d="M108.481 15.2913V34.815" stroke="#545F71" stroke-width="0.4"/>
<path d="M114.981 11.4602V34.8149" stroke="#545F71" stroke-width="0.4"/>
<path d="M101.981 18.0581V34.815" stroke="#545F71" stroke-width="0.4"/>
<path d="M95.4808 20.1863V34.8149" stroke="#545F71" stroke-width="0.4"/>
<path d="M88.9808 21.8889V34.8148" stroke="#545F71" stroke-width="0.4"/>
<path d="M82.4808 23.166V34.815" stroke="#545F71" stroke-width="0.4"/>
<path d="M75.9808 23.5251V34.8148" stroke="#545F71" stroke-width="0.4"/>
<path d="M69.4808 23.5251V34.8148" stroke="#545F71" stroke-width="0.4"/>
<path d="M62.9808 23.166V34.815" stroke="#545F71" stroke-width="0.4"/>
<path d="M56.4808 21.8889V34.8148" stroke="#545F71" stroke-width="0.4"/>
<path d="M49.9808 20.1863V34.8149" stroke="#545F71" stroke-width="0.4"/>
<path d="M43.4808 18.0581V34.815" stroke="#545F71" stroke-width="0.4"/>
<path d="M36.9808 15.2913V34.815" stroke="#545F71" stroke-width="0.4"/>
<path d="M30.4808 11.4602V34.8149" stroke="#545F71" stroke-width="0.4"/>
<path d="M25.665 6.81494H17.665V34.8149H25.665V6.81494Z" fill="#545F71"/>
<path d="M24.665 3.81494H18.665V7.81494H24.665V3.81494Z" fill="#545F71"/>
<path d="M27.665 34.8149H15.665V37.8149H27.665V34.8149Z" fill="#545F71"/>
<path d="M21.6611 0.814941L24.6583 3.81494H18.6638L21.6611 0.814941Z" fill="#545F71"/>
<path d="M129.076 6.81494H121.076V34.8149H129.076V6.81494Z" fill="#545F71"/>
<path d="M128.076 3.81494H122.076V7.81494H128.076V3.81494Z" fill="#545F71"/>
<path d="M131.076 34.8149H119.076V37.8149H131.076V34.8149Z" fill="#545F71"/>
<path d="M125.072 0.814941L128.069 3.81494H122.074L125.072 0.814941Z" fill="#545F71"/>
<path d="M25.4991 7.81494C53.9084 28.9667 92.8324 28.9669 121.242 7.81494" stroke="#545F71"/>
<path d="M24.0714 34.7998H122.076" stroke="#545F71" stroke-width="2"/>
</g>
<defs>
<clipPath id="clip0_207_498">
<rect width="117" height="44" fill="white" transform="translate(14.7)"/>
</clipPath>
</defs>
</svg>
